<svg width="412" height="529" viewBox="0 0 412 529" fill="none" xmlns="http://www.w3.org/2000/svg">
<g clip-path="url(#clip0_31_2220)">
<rect width="618" height="529" transform="translate(-103)" fill="url(#paint0_linear_31_2220)"/>
<path d="M37.0238 87.2496L45.656 26.7478C48.6253 48.0175 54.1875 87.2612 55.5502 94.7775C55.7465 95.0453 55.8574 95.4104 55.8574 95.8928C55.8574 96.2912 55.748 95.8688 55.5502 94.7775C54.4676 93.3002 50.7876 94.7842 48.7947 95.8928C49.841 97.2023 52.7184 101.236 55.8574 106.893C58.9963 112.55 63.9663 153.775 66.059 173.681H55.8574C68.4132 179.181 73.1217 212.182 73.1217 220.825C73.1217 227.74 81.4922 280.279 85.6775 305.685C83.1663 303.17 71.5522 304.637 66.059 305.685C99.332 318.885 95.0944 350.472 88.8165 364.615H10.3426C10.6042 352.043 10.9704 314.328 10.3426 264.041C9.71483 213.753 27.3453 189.134 36.2391 183.11C33.7279 181.852 25.7759 184.681 22.1137 186.253C22.1137 162.366 33.6233 144.87 39.378 139.108C37.0238 138.323 28.3917 141.466 28.3917 140.68C28.3917 139.894 33.8848 97.4642 35.4543 94.3213C36.7099 91.8069 40.1628 88.0354 41.7323 86.4639C39.8489 86.4639 37.8086 86.9877 37.0238 87.2496Z" fill="#101523"/>
<path d="M119.245 75.5181L110.613 15.0163C107.643 36.286 102.081 75.5296 100.719 83.046C100.522 83.3138 100.411 83.6789 100.411 84.1613C100.411 84.5597 100.521 84.1373 100.719 83.046C101.801 81.5687 105.481 83.0527 107.474 84.1613C106.428 85.4708 103.55 89.5043 100.411 95.1616C97.2725 100.819 92.3025 142.044 90.2098 161.949H100.411C87.8556 167.449 83.1471 200.45 83.1471 209.094C83.1471 216.008 74.7766 268.548 70.5913 293.953C73.1025 291.439 84.7166 292.906 90.2098 293.953C56.9368 307.154 61.1744 338.74 67.4523 352.884H145.926C145.665 340.312 145.298 302.596 145.926 252.309C146.554 202.022 128.923 177.402 120.03 171.378C122.541 170.121 130.493 172.95 134.155 174.521C134.155 150.635 122.646 133.139 116.891 127.377C119.245 126.591 127.877 129.734 127.877 128.948C127.877 128.163 122.384 85.7327 120.814 82.5898C119.559 80.0754 116.106 76.3039 114.537 74.7324C116.42 74.7324 118.46 75.2562 119.245 75.5181Z" fill="#151925"/>
<path d="M353.54 87.2496L362.172 26.7478C365.141 48.0175 370.704 87.2612 372.066 94.7775C372.262 95.0453 372.373 95.4104 372.373 95.8928C372.373 96.2912 372.264 95.8688 372.066 94.7775C370.984 93.3002 367.304 94.7842 365.311 95.8928C366.357 97.2023 369.234 101.236 372.373 106.893C375.512 112.55 380.482 153.775 382.575 173.681H372.373C384.929 179.181 389.638 212.182 389.638 220.825C389.638 227.74 398.008 280.279 402.193 305.685C399.682 303.17 388.068 304.637 382.575 305.685C415.848 318.885 411.61 350.472 405.332 364.615H326.859C327.12 352.043 327.486 314.328 326.859 264.041C326.231 213.753 343.861 189.134 352.755 183.11C350.244 181.852 342.292 184.681 338.63 186.253C338.63 162.366 350.139 144.87 355.894 139.108C353.54 138.323 344.908 141.466 344.908 140.68C344.908 139.894 350.401 97.4642 351.97 94.3213C353.226 91.8069 356.679 88.0354 358.248 86.4639C356.365 86.4639 354.325 86.9877 353.54 87.2496Z" fill="#101523"/>
<path d="M442.565 138.399L433.933 77.8972C430.964 99.1669 425.401 138.411 424.039 145.927C423.843 146.195 423.732 146.56 423.732 147.042C423.732 147.441 423.841 147.018 424.039 145.927C425.121 144.45 428.801 145.934 430.794 147.042C429.748 148.352 426.871 152.385 423.732 158.042C420.593 163.7 415.623 204.925 413.53 224.83H423.732C411.176 230.33 406.467 263.331 406.467 271.974C406.467 278.889 398.097 331.429 393.911 356.834C396.423 354.32 408.037 355.786 413.53 356.834C380.257 370.035 384.495 401.621 390.773 415.764H469.246C468.985 403.193 468.619 365.477 469.246 315.19C469.874 264.903 452.244 240.283 443.35 234.259C445.861 233.002 453.813 235.831 457.475 237.402C457.475 213.516 445.966 196.02 440.211 190.258C442.565 189.472 451.197 192.615 451.197 191.829C451.197 191.043 445.704 148.614 444.135 145.471C442.879 142.956 439.426 139.185 437.857 137.613C439.74 137.613 441.78 138.137 442.565 138.399Z" fill="#151925"/>
<path d="M272.827 83.0263L281.459 22.5245C284.429 43.7942 289.991 83.0378 291.353 90.5541C291.55 90.8219 291.661 91.1871 291.661 91.6694C291.661 92.0679 291.551 91.6454 291.353 90.5541C290.271 89.0769 286.591 90.5608 284.598 91.6694C285.644 92.979 288.522 97.0124 291.661 102.67C294.8 108.327 299.77 149.552 301.862 169.457H291.661C304.216 174.958 308.925 207.959 308.925 216.602C308.925 223.516 317.295 276.056 321.481 301.461C318.97 298.947 307.355 300.414 301.862 301.461C335.135 314.662 330.898 346.248 324.62 360.392H246.146C246.407 347.82 246.774 310.105 246.146 259.817C245.518 209.53 263.149 184.91 272.042 178.886C269.531 177.629 261.579 180.458 257.917 182.029C257.917 158.143 269.426 140.647 275.181 134.885C272.827 134.099 264.195 137.242 264.195 136.456C264.195 135.671 269.688 93.2409 271.258 90.0979C272.513 87.5836 275.966 83.812 277.535 82.2406C275.652 82.2406 273.612 82.7644 272.827 83.0263Z" fill="#0E1321"/>
<path d="M321.865 81.1493L330.497 20.6474C333.466 41.9171 339.028 81.1608 340.391 88.6771C340.587 88.9449 340.698 89.31 340.698 89.7924C340.698 90.1909 340.589 89.7684 340.391 88.6771C339.309 87.1998 335.629 88.6838 333.636 89.7924C334.682 91.1019 337.559 95.1354 340.698 100.793C343.837 106.45 348.807 147.675 350.9 167.58H340.698C353.254 173.081 357.963 206.082 357.963 214.725C357.963 221.639 366.333 274.179 370.518 299.584C368.007 297.07 356.393 298.537 350.9 299.584C384.173 312.785 379.935 344.371 373.657 358.515H295.184C295.445 345.943 295.811 308.227 295.184 257.94C294.556 207.653 312.186 183.033 321.08 177.009C318.569 175.752 310.617 178.581 306.955 180.152C306.955 156.266 318.464 138.77 324.219 133.008C321.865 132.222 313.233 135.365 313.233 134.579C313.233 133.794 318.726 91.3639 320.295 88.2209C321.551 85.7065 325.004 81.935 326.573 80.3635C324.69 80.3635 322.649 80.8873 321.865 81.1493Z" fill="#0E1321"/>
<path d="M389.25 109.07L397.442 48.5684C400.26 69.8381 405.538 109.082 406.832 116.598C407.018 116.866 407.123 117.231 407.123 117.713C407.123 118.112 407.019 117.689 406.832 116.598C405.804 115.121 402.312 116.605 400.421 117.713C401.414 119.023 404.144 123.056 407.123 128.714C410.102 134.371 414.819 175.596 416.805 195.501H407.123C419.039 201.002 423.507 234.003 423.507 242.646C423.507 249.56 431.451 302.1 435.423 327.505C433.04 324.991 422.018 326.458 416.805 327.505C448.381 340.706 444.359 372.292 438.402 386.436H363.929C364.178 373.864 364.525 336.148 363.929 285.861C363.334 235.574 380.065 210.954 388.505 204.93C386.122 203.673 378.576 206.502 375.1 208.073C375.1 184.187 386.023 166.691 391.484 160.929C389.25 160.143 381.058 163.286 381.058 162.5C381.058 161.715 386.271 119.285 387.761 116.142C388.952 113.628 392.229 109.856 393.718 108.285C391.931 108.285 389.995 108.808 389.25 109.07Z" fill="#0E1321"/>
<path d="M-1.00165 53.7085L7.77722 -4.6926C10.797 15.8386 16.4538 53.7196 17.8396 60.9749C18.0392 61.2334 18.152 61.5859 18.152 62.0515C18.152 62.4361 18.0408 62.0283 17.8396 60.9749C16.7386 59.549 12.9961 60.9814 10.9693 62.0515C12.0334 63.3156 14.9597 67.209 18.152 72.6698C21.3443 78.1307 26.3988 117.924 28.527 137.139H18.152C30.9213 142.448 35.7097 174.303 35.7097 182.646C35.7097 189.32 44.2226 240.036 48.479 264.559C45.9252 262.132 34.1136 263.548 28.527 264.559C62.3656 277.301 58.056 307.791 51.6713 321.443H-28.1363C-27.8703 309.308 -27.4979 272.902 -28.1363 224.361C-28.7748 175.82 -10.8446 152.055 -1.79973 146.24C-4.35359 145.026 -12.4408 147.757 -16.1652 149.274C-16.1652 126.217 -4.46 109.329 1.39258 103.767C-1.00165 103.008 -9.78053 106.042 -9.78053 105.283C-9.78053 104.525 -4.19397 63.5684 -2.59781 60.5346C-1.32089 58.1075 2.19066 54.4669 3.78682 52.95C1.87143 52.95 -0.203575 53.4556 -1.00165 53.7085Z" fill="#212736"/>
<path d="M162.652 57.4516L154.019 -3.05019C151.05 18.2195 145.488 57.4631 144.125 64.9794C143.929 65.2473 143.818 65.6124 143.818 66.0947C143.818 66.4932 143.927 66.0707 144.125 64.9794C145.208 63.5022 148.888 64.9862 150.881 66.0947C149.834 67.4043 146.957 71.4378 143.818 77.0951C140.679 82.7524 135.709 123.977 133.616 143.883H143.818C131.262 149.383 126.554 182.384 126.554 191.027C126.554 197.942 118.183 250.481 113.998 275.887C116.509 273.372 128.123 274.839 133.616 275.887C100.343 289.087 104.581 320.674 110.859 334.817H189.333C189.071 322.245 188.705 284.53 189.333 234.243C189.961 183.955 172.33 159.336 163.436 153.312C165.948 152.054 173.9 154.883 177.562 156.455C177.562 132.568 166.052 115.072 160.297 109.31C162.652 108.525 171.284 111.668 171.284 110.882C171.284 110.096 165.791 67.6662 164.221 64.5233C162.965 62.0089 159.513 58.2374 157.943 56.6659C159.827 56.6659 161.867 57.1897 162.652 57.4516Z" fill="#181F3B"/>
<path d="M250.168 119.394L241.536 58.8922C238.567 80.1619 233.005 119.405 231.642 126.922C231.446 127.19 231.335 127.555 231.335 128.037C231.335 128.436 231.444 128.013 231.642 126.922C232.725 125.445 236.405 126.929 238.398 128.037C237.351 129.347 234.474 133.38 231.335 139.037C228.196 144.695 223.226 185.92 221.133 205.825H231.335C218.779 211.325 214.071 244.326 214.071 252.969C214.071 259.884 205.7 312.424 201.515 337.829C204.026 335.315 215.64 336.781 221.133 337.829C187.86 351.029 192.098 382.616 198.376 396.759H276.85C276.588 384.188 276.222 346.472 276.85 296.185C277.477 245.898 259.847 221.278 250.953 215.254C253.464 213.997 261.416 216.825 265.079 218.397C265.079 194.511 253.569 177.015 247.814 171.253C250.168 170.467 258.801 173.61 258.801 172.824C258.801 172.038 253.307 129.609 251.738 126.466C250.482 123.951 247.029 120.18 245.46 118.608C247.343 118.608 249.384 119.132 250.168 119.394Z" fill="#151925"/>
<path d="M58.6099 117.048L67.242 56.5458C70.2114 77.8155 75.7736 117.059 77.1362 124.575C77.3325 124.843 77.4434 125.208 77.4434 125.691C77.4434 126.089 77.3341 125.667 77.1362 124.575C76.0536 123.098 72.3737 124.582 70.3807 125.691C71.4271 127 74.3045 131.034 77.4434 136.691C80.5824 142.348 85.5524 183.573 87.645 203.479H77.4434C89.9993 208.979 94.7077 241.98 94.7077 250.623C94.7077 257.538 103.078 310.077 107.264 335.483C104.752 332.968 93.1382 334.435 87.645 335.483C120.918 348.683 116.68 380.27 110.403 394.413H31.9287C32.1903 381.841 32.5565 344.126 31.9287 293.839C31.3009 243.551 48.9314 218.932 57.8251 212.908C55.314 211.651 47.3619 214.479 43.6998 216.051C43.6998 192.164 55.2093 174.668 60.9641 168.906C58.6099 168.121 49.9777 171.264 49.9777 170.478C49.9777 169.692 55.4709 127.262 57.0404 124.119C58.296 121.605 61.7488 117.833 63.3183 116.262C61.4349 116.262 59.3946 116.786 58.6099 117.048Z" fill="#1A1F30"/>
<path d="M140.143 95.3482L131.364 45.5182C128.344 63.0362 122.687 95.3577 121.301 101.548C121.102 101.769 120.989 102.07 120.989 102.467C120.989 102.795 121.1 102.447 121.301 101.548C122.402 100.332 126.145 101.554 128.172 102.467C127.107 103.545 124.181 106.867 120.989 111.527C117.797 116.186 112.742 150.14 110.614 166.534H120.989C108.22 171.064 103.431 198.244 103.431 205.362C103.431 211.057 94.9183 254.33 90.6619 275.254C93.2157 273.183 105.027 274.391 110.614 275.254C76.7753 286.126 81.0849 312.141 87.4695 323.79H167.277C167.011 313.435 166.639 282.372 167.277 240.955C167.916 199.538 149.986 179.261 140.941 174.3C143.494 173.264 151.582 175.594 155.306 176.888C155.306 157.215 143.601 142.805 137.748 138.06C140.143 137.412 148.921 140.001 148.921 139.354C148.921 138.707 143.335 103.761 141.739 101.172C140.462 99.1016 136.95 95.9954 135.354 94.7011C137.269 94.7011 139.344 95.1325 140.143 95.3482Z" fill="#101523"/>
<path d="M-22.2368 114.467L-30.869 53.9649C-33.8383 75.2346 -39.4005 114.478 -40.7632 121.995C-40.9595 122.262 -41.0704 122.628 -41.0704 123.11C-41.0704 123.508 -40.961 123.086 -40.7632 121.995C-39.6806 120.517 -36.0006 122.001 -34.0077 123.11C-35.054 124.419 -37.9314 128.453 -41.0704 134.11C-44.2093 139.767 -49.1794 180.993 -51.272 200.898H-41.0704C-53.6262 206.398 -58.3347 239.399 -58.3347 248.042C-58.3347 254.957 -66.7052 307.496 -70.8905 332.902C-68.3793 330.388 -56.7652 331.854 -51.272 332.902C-84.545 346.102 -80.3074 377.689 -74.0295 391.832H4.44436C4.18278 379.26 3.81657 341.545 4.44436 291.258C5.07216 240.971 -12.5584 216.351 -21.4521 210.327C-18.9409 209.07 -10.9889 211.898 -7.32675 213.47C-7.32675 189.583 -18.8363 172.088 -24.591 166.325C-22.2368 165.54 -13.6047 168.683 -13.6047 167.897C-13.6047 167.111 -19.0979 124.681 -20.6673 121.538C-21.9229 119.024 -25.3758 115.252 -26.9453 113.681C-25.0619 113.681 -23.0216 114.205 -22.2368 114.467Z" fill="#181F3B"/>
<path d="M354.41 102.035L346.634 43.1719C343.959 63.8656 338.949 102.046 337.721 109.359C337.544 109.62 337.444 109.975 337.444 110.444C337.444 110.832 337.543 110.421 337.721 109.359C338.696 107.922 342.011 109.366 343.807 110.444C342.864 111.718 340.272 115.643 337.444 121.147C334.617 126.651 330.139 166.759 328.254 186.125H337.444C326.133 191.477 321.892 223.584 321.892 231.993C321.892 238.72 314.351 289.837 310.581 314.554C312.843 312.108 323.306 313.535 328.254 314.554C298.28 327.397 302.098 358.128 307.753 371.889H378.446C378.211 359.657 377.881 322.963 378.446 274.038C379.012 225.113 363.129 201.16 355.117 195.299C357.38 194.076 364.543 196.828 367.842 198.357C367.842 175.117 357.474 158.095 352.29 152.489C354.41 151.725 362.187 154.783 362.187 154.018C362.187 153.254 357.238 111.973 355.824 108.915C354.693 106.469 351.583 102.8 350.169 101.271C351.866 101.271 353.704 101.78 354.41 102.035Z" fill="#181F3B"/>
<path d="M317.273 119.394L308.641 58.8922C305.671 80.1619 300.109 119.405 298.747 126.922C298.55 127.19 298.439 127.555 298.439 128.037C298.439 128.436 298.549 128.013 298.747 126.922C299.829 125.445 303.509 126.929 305.502 128.037C304.456 129.347 301.578 133.38 298.439 139.037C295.3 144.695 290.33 185.92 288.238 205.825H298.439C285.884 211.325 281.175 244.326 281.175 252.969C281.175 259.884 272.805 312.424 268.619 337.829C271.13 335.315 282.745 336.781 288.238 337.829C254.965 351.029 259.202 382.616 265.48 396.759H343.954C343.693 384.188 343.326 346.472 343.954 296.185C344.582 245.898 326.951 221.278 318.058 215.254C320.569 213.997 328.521 216.825 332.183 218.397C332.183 194.511 320.673 177.015 314.919 171.253C317.273 170.467 325.905 173.61 325.905 172.824C325.905 172.038 320.412 129.609 318.842 126.466C317.587 123.951 314.134 120.18 312.564 118.608C314.448 118.608 316.488 119.132 317.273 119.394Z" fill="#141824"/>
<path d="M550.445 272.797C304.74 234.693 -8.99158 256.921 -135.144 272.797L-160.25 524.672L465.274 518.455C596.041 452.446 796.149 310.901 550.445 272.797Z" fill="url(#paint1_radial_31_2220)"/>
<path d="M128.226 320.485C122.848 318.516 117.829 319.448 112.281 320.485C105.233 321.805 95.3737 323.639 90.0712 332.156C86.1782 338.406 84.5002 348.645 89.2136 354.932C94.0388 361.361 100.527 356.976 134.483 359.772C139.405 360.175 142.149 360.511 144.163 358.631C150.957 352.315 143.872 326.22 128.218 320.477L128.226 320.485Z" fill="#4C4A38"/>
<path d="M115.413 327.323C115.286 325.056 114.622 322.55 113.392 320.283C113.026 320.35 112.654 320.417 112.281 320.492C105.233 321.812 95.3737 323.647 90.0712 332.163C86.7077 337.563 85.0073 345.931 87.6399 352.165C102.145 351.934 116.062 339.248 115.405 327.323H115.413Z" fill="#5E5D45"/>
<path d="M103.435 325.138C103.793 324.9 107.589 322.409 109.409 323.751C111.206 325.079 110.252 329.538 108.716 332.365C106.061 337.242 99.8258 340.568 97.8793 339.032C95.7017 337.317 97.9763 328.793 103.435 325.138Z" fill="#80806A"/>
<path d="M92.6068 340.837C92.8678 340.367 93.6733 338.898 94.4116 339.032C95.0679 339.151 95.4557 340.494 95.3811 341.531C95.217 343.835 92.7037 345.841 91.9057 345.424C91.1749 345.036 91.682 342.515 92.5993 340.837H92.6068Z" fill="#80806A"/>
<path d="M275.566 327.462C279.474 327.209 285.694 326.873 292.451 330.199C300.304 334.063 307.971 342.415 308.657 353.132C308.821 355.66 309.164 361.075 306.032 365.796C298.566 377.072 275.335 378.392 261.874 367.392C253.946 360.918 246.66 347.934 251.373 338.41C256.168 328.73 270.808 327.768 275.566 327.455V327.462Z" fill="#4C4A38"/>
<path d="M292.459 330.199C285.702 326.873 279.474 327.201 275.574 327.462C274.157 327.552 271.86 327.708 269.212 328.126C268.974 329.252 268.817 330.445 268.802 331.706C268.698 341.021 275.932 347.39 279.996 350.969C288.506 358.457 298.939 361.306 307.784 362.208C309.007 358.569 308.784 355.034 308.664 353.14C307.978 342.415 300.319 334.07 292.459 330.207V330.199Z" fill="#80806A"/>
<path d="M280.213 331.669C279.698 332.414 280.026 333.429 280.392 334.562C281.003 336.464 282.353 338.41 289.945 342.885C295.195 345.98 296.008 345.906 296.515 345.6C298.164 344.615 297.97 340.491 296.515 337.627C293.152 331.02 282.01 329.073 280.213 331.669V331.669Z" fill="#A5A58D"/>
<path d="M300.893 344.459C300.513 344.585 300.565 345.645 300.632 346.912C300.819 350.708 302.258 354.922 303.175 354.803C303.832 354.721 304.115 352.446 304.048 350.947C303.899 347.39 301.617 344.22 300.893 344.459V344.459Z" fill="#A5A58D"/>
<path d="M206.685 383.86C206.683 383.86 206.68 383.861 206.678 383.861C189.461 387.758 156.317 368.466 153.525 361.912C153.024 360.737 153.888 357.435 152.911 356.612C133.073 339.913 134.212 301.67 150.848 286.537C151.675 285.785 153.085 286.672 153.096 287.79C153.179 296.57 160.443 310.767 170.865 302.404C171.019 302.281 171.144 302.113 171.214 301.928C177.465 285.375 165.847 257.027 192.319 248.266C192.484 248.212 192.685 248.196 192.857 248.216C215.365 250.741 185.884 198.482 212.483 218.207C212.562 218.265 212.654 218.32 212.745 218.357C230.504 225.763 256.542 255.918 249.242 282.462C249.223 282.53 249.196 282.6 249.166 282.664C243.736 294.051 258.783 300.012 263.059 289.698C263.546 288.523 265.763 288.247 266.239 289.426C273.264 306.834 280.33 324.72 269.127 342.202C269.078 342.278 269.022 342.346 268.958 342.41C265.259 346.081 259.64 357.717 260.625 361.841C260.764 362.424 260.771 363.112 260.351 363.539C246.467 377.657 214.643 385.12 206.69 383.861C206.688 383.86 206.687 383.86 206.685 383.86V383.86Z" fill="#F2633E"/>
<path d="M203.247 381.465C203.247 381.464 203.246 381.463 203.244 381.463C189.295 382.813 167.521 353.796 162.005 335.278C161.99 335.23 161.982 335.182 161.978 335.133C161.388 327.206 161.064 318.506 166.371 327.099C166.42 327.177 166.491 327.255 166.565 327.309C184.818 340.53 188.693 312.16 187.827 300.591C187.821 300.512 187.828 300.437 187.85 300.36C191.355 287.703 212.306 272.581 210.967 258.233C210.907 257.595 211.633 257.121 212.143 257.51C228.189 269.763 234.528 295.345 230.784 315.732C230.765 315.84 230.772 315.958 230.803 316.063C235.02 330.214 248.765 313.491 247.671 322.952C247.295 329.692 239.414 344.922 250.416 345.769C250.981 345.813 251.336 346.452 251.027 346.927C238.173 366.626 229.758 379.863 203.25 381.468C203.248 381.468 203.247 381.467 203.247 381.465V381.465Z" fill="#FF8621" fill-opacity="0.59"/>
<path d="M204.249 379.027C204.249 379.028 204.248 379.029 204.247 379.029C189.707 379.629 177.773 342.947 183.158 347.804C183.403 348.025 183.721 348.232 184.048 348.278C194.571 349.74 192.108 316.755 210.705 302.747C211.753 301.958 213.156 302.789 213.041 304.096C211.635 319.993 206.476 332.085 225.366 339.42C225.482 339.465 225.602 339.527 225.704 339.597C242.081 350.944 220.755 385.687 204.252 379.025C204.25 379.024 204.249 379.025 204.249 379.027V379.027Z" fill="#FFD651" fill-opacity="0.8"/>
<path d="M207.145 365.553C206.638 365.527 205.511 365.315 203.032 361.681C201.19 358.981 200.27 357.63 200.162 356.336C199.923 353.482 201.826 351.325 203.965 348.898C205.324 347.358 206.657 345.847 208.078 346.109C208.68 346.219 209.306 346.652 210.562 348.974C212.328 352.246 213.211 353.881 213.277 356.1C213.371 359.298 212.002 362.512 209.708 364.388C209.011 364.958 208.199 365.603 207.148 365.551L207.145 365.553Z" fill="#FBFAE1"/>
<path d="M165.802 361.718C165.332 360.354 163.281 355.23 150.237 350.047C127.528 341.015 104.737 344.998 90.4702 349.212C89.1576 349.868 79.6265 354.82 77.404 365.611C75.2263 376.187 81.4536 385.718 87.9643 390.073C91.9841 392.758 94.5421 392.43 106.035 394.242C127.364 397.613 127.006 400.089 133.278 399.522C151.692 397.859 170.396 375.031 165.802 361.718V361.718Z" fill="#80806A"/>
<path d="M150.237 350.039C140.169 346.035 130.079 344.588 120.727 344.588C122.807 347.28 124.716 350.293 126.327 353.649C132.547 366.596 131.749 379.058 131.332 385.613C131.011 390.632 130.205 395.226 129.161 399.358C130.422 399.597 131.615 399.664 133.278 399.507C151.691 397.844 170.396 375.016 165.802 361.703C165.332 360.339 163.281 355.215 150.237 350.032V350.039Z" fill="#4C4A38"/>
<path d="M101.299 393.533C107.683 383.219 112.993 369.445 109.928 354.492C109.391 351.874 108.518 348.854 107.086 345.572C100.829 346.452 95.1835 347.817 90.4702 349.212C89.1576 349.868 79.6265 354.82 77.404 365.611C75.2263 376.187 81.4536 385.718 87.9643 390.073C91.3576 392.348 93.7143 392.46 101.299 393.533Z" fill="#A6A58E"/>
<path d="M100.203 350.502C101.135 350.748 103.156 351.531 103.26 352.709C103.387 354.111 100.747 355.29 97.6521 356.96C92.9313 359.511 89.18 361.532 87.2857 363.59C81.2448 370.138 87.8226 383.794 86.264 384.323C85.0856 384.726 79.2461 377.566 79.977 369.199C80.9614 357.885 93.5801 348.749 100.195 350.509L100.203 350.502Z" fill="#CDCBB8"/>
<path d="M253.26 361.413C255.065 357.594 257.921 355.595 262.977 352.046C268.056 348.481 277.058 342.179 289.833 342.328C292.667 342.358 308.963 342.865 318.456 355.402C320.738 358.415 323.505 362.069 323.58 367.066C323.819 382.563 297.865 392.579 293.01 394.451C284.262 397.829 278.288 400.134 271.278 397.986C256.959 393.593 247.57 373.442 253.252 361.413H253.26Z" fill="#5D5C45"/>
<path d="M323.587 367.066C323.513 362.069 320.746 358.414 318.464 355.402C308.97 342.857 292.675 342.358 289.841 342.328C282.249 342.238 276.006 344.431 271.114 346.967C271.979 352.202 278.296 356.998 282.062 360.175C295.524 371.488 300.274 382.011 304.458 389.275C313.325 384.539 323.737 376.91 323.587 367.066V367.066Z" fill="#80806A"/>
<path d="M293.898 349.57C292.13 350.45 291.25 350.89 290.892 351.337C288.998 353.724 291.175 359.608 294.606 363.352C297.269 366.268 300.975 367.476 308.388 369.892C314.839 371.995 316.152 371.57 316.868 370.951C319.098 369.034 317.345 363.747 316.868 362.293C313.743 352.858 303.854 345.952 298.842 347.452C298.089 347.675 295.978 348.533 293.898 349.57V349.57Z" fill="#A5A58D"/>
<path d="M298.096 351.449C297.835 351.508 297.112 351.68 296.687 352.299C296.165 353.045 296.21 354.268 296.784 354.932C297.537 355.812 298.894 355.387 301.02 355.401C303.429 355.416 305.651 355.991 306.852 356.528C311.14 358.452 311.99 364.314 312.497 364.15C312.878 364.023 312.833 360.518 310.805 357.281C307.232 351.576 300.162 350.964 298.104 351.449H298.096Z" fill="#CDCBB8"/>
<path d="M213.592 373.099C214.3 372.107 217.09 368.319 222.071 364.94C223.414 364.03 237.308 354.962 253.066 360.212C261.232 362.934 265.961 369.258 275.41 381.907C277.848 385.173 279.527 387.836 279.653 391.371C279.899 398.374 273.866 403.691 271.01 406.212C259.204 416.615 243.423 417.16 234.638 417.466C228.821 417.667 222.243 416.973 222.243 416.973C218.052 416.533 215.956 416.317 214.904 415.832C206.082 411.805 202.823 388.216 213.599 373.099H213.592Z" fill="#5E5D45"/>
<path d="M253.066 360.212C246.831 358.131 240.887 358.303 235.898 359.317C235.689 360.704 235.391 362.322 234.958 364.127C233.564 369.952 232.333 371.093 233.005 373.427C233.967 376.791 237.084 376.44 239.858 380.766C241.969 384.062 241.253 385.979 242.469 389.245C244.467 394.63 249.36 397.374 254.051 400.014C259.674 403.176 265.901 404.854 271.569 405.72C274.582 403.035 279.884 397.948 279.653 391.371C279.527 387.836 277.856 385.173 275.41 381.907C265.953 369.258 261.225 362.934 253.066 360.212Z" fill="#80806A"/>
<path d="M244.579 366.089C242.961 367.155 242.342 369.586 242.625 371.473C243.087 374.553 245.78 375.06 250.784 379.632C256.191 384.569 257.287 387.858 259.756 387.463C261.65 387.157 262.91 384.92 263.343 383.383C264.79 378.252 259.204 373.069 257.31 371.317C256.72 370.772 248.644 363.411 244.587 366.096L244.579 366.089Z" fill="#A5A58D"/>
<path d="M164.512 361.964C156.017 363.807 150.7 367.274 148.775 368.624C146.106 370.489 135.195 378.118 132.637 392.228C132.331 393.906 129.504 410.694 139.095 418.256C142.578 421.008 148.328 421.336 159.679 421.888C170.388 422.41 170.269 421.374 182.88 421.687C194.074 421.963 196.908 422.85 203.464 421.485C208.147 420.508 213.256 419.442 217.186 416.041C225.688 408.673 226.456 392.251 221.02 381.139C211.302 361.271 181.717 358.236 164.526 361.972L164.512 361.964Z" fill="#80806A"/>
<path d="M214.748 387.008C213.286 375.739 204.918 369.467 203.434 368.401C195.409 362.613 186.855 363.255 173.953 364.232C163.587 365.015 152.743 365.984 144.174 373.912C141.594 376.298 137.007 380.669 136.88 387.015C136.761 392.81 140.438 397.001 141.348 398.031C146.449 403.84 153.974 404.907 162.192 406.07C169.523 407.107 174.848 406.689 174.848 406.965C174.848 407.278 167.704 408.3 159.067 407.86C154.928 407.644 152.586 407.204 152.37 407.86C152.02 408.912 157.352 412.148 162.64 413.968C171.828 417.123 180.031 415.706 191.822 413.521C200.361 411.939 204.694 411.097 207.752 408.457C216.373 401.036 214.889 388.074 214.748 387.015V387.008ZM200.026 388.798C194.432 392.915 186.035 383.525 175.81 387.791C172.089 389.342 172.357 390.938 168.345 392.228C161.461 394.443 152.146 392.504 150.789 388.194C149.037 382.6 161.267 374.829 162.49 374.069C175.46 365.984 188.846 369.154 192.553 370.034C199.191 371.607 200.951 373.815 201.629 374.874C204.307 379.035 203.658 386.113 200.018 388.798H200.026Z" fill="#A5A58D"/>
<g filter="url(#filter0_f_31_2220)">
<g filter="url(#filter1_f_31_2220)">
<circle cx="201.55" cy="266.774" r="109.807" fill="#FDDC72" fill-opacity="0.2"/>
</g>
</g>
<path d="M208.041 186.033C208.041 187.238 207.908 189.816 206.703 189.816C205.497 189.816 205.364 187.238 205.364 186.033C205.364 184.827 205.497 182.308 206.703 182.308C207.908 182.308 208.041 184.827 208.041 186.033Z" fill="#FFD651"/>
<path d="M214.291 189.435C213.768 190.522 212.53 192.786 211.444 192.263C210.358 191.741 211.356 189.36 211.879 188.274C212.402 187.188 213.615 184.976 214.701 185.499C215.787 186.021 214.814 188.349 214.291 189.435Z" fill="#FFD651"/>
<path d="M199.177 189.435C199.7 190.522 200.938 192.786 202.024 192.263C203.11 191.741 202.112 189.36 201.589 188.274C201.066 187.188 199.853 184.976 198.767 185.499C197.681 186.021 198.654 188.349 199.177 189.435Z" fill="#FFD651"/>
</g>
<defs>
<filter id="filter0_f_31_2220" x="44.8169" y="110.042" width="313.466" height="313.466" filterUnits="userSpaceOnUse" color-interpolation-filters="sRGB">
<feFlood flood-opacity="0" result="BackgroundImageFix"/>
<feBlend mode="normal" in="SourceGraphic" in2="BackgroundImageFix" result="shape"/>
<feGaussianBlur stdDeviation="23.463" result="effect1_foregroundBlur_31_2220"/>
</filter>
<filter id="filter1_f_31_2220" x="21.3539" y="86.5785" width="360.392" height="360.392" filterUnits="userSpaceOnUse" color-interpolation-filters="sRGB">
<feFlood flood-opacity="0" result="BackgroundImageFix"/>
<feBlend mode="normal" in="SourceGraphic" in2="BackgroundImageFix" result="shape"/>
<feGaussianBlur stdDeviation="35.1945" result="effect1_foregroundBlur_31_2220"/>
</filter>
<linearGradient id="paint0_linear_31_2220" x1="309" y1="0" x2="309" y2="529" gradientUnits="userSpaceOnUse">
<stop stop-color="#120202"/>
<stop offset="0.967572" stop-color="#131659"/>
</linearGradient>
<radialGradient id="paint1_radial_31_2220" cx="0" cy="0" r="1" gradientUnits="userSpaceOnUse" gradientTransform="translate(253.168 370.364) rotate(89.9761) scale(154.309 467.576)">
<stop offset="0.837069" stop-color="#0D2744"/>
<stop offset="1" stop-color="#0A203D"/>
</radialGradient>
<clipPath id="clip0_31_2220">
<rect width="618" height="529" fill="white" transform="translate(-103)"/>
</clipPath>
</defs>
</svg>
